# xmcd
#
# Track frame offsets:
#	150
#	25091
#	35778
#	50556
#	65405
#	79541
#	95817
#	109707
#	126557
#	138914
#	156027
#	175016
#	188947
#	208162
#	219054
#
# Disc length: 3145 seconds
#
# Revision: 1
# Processed by: cddbd v1.5.1PL0 Copyright (c) Steve Scherf et al.
# Submitted via: audiograbber 1.83.01
#
DISCID=d30c470f
DTITLE=Steve Hill Trio - (What ever Happened to) Playing for the Love of Music
DYEAR=2004
DGENRE=Blues
TTITLE0=Hey Now, Serena
TTITLE1=Cut Me Some Slack
TTITLE2=Let Me Dream
TTITLE3=Love Me Right
TTITLE4=New Year for the Blues
TTITLE5=No More Thrills
TTITLE6=You Just Might Find
TTITLE7=The Dog in Me
TTITLE8=Somw Me a Heart
TTITLE9=I Ain't Gonna Jump Through No More Hoops
TTITLE10=Things You Get Used To
TTITLE11=Stir Your Sugar
TTITLE12=Second Hand Information
TTITLE13=Video Game Baby
TTITLE14=Trouble Coming Down (Strife in the News)
EXTD=
EXTT0=
EXTT1=
EXTT2=
EXTT3=
EXTT4=
EXTT5=
EXTT6=
EXTT7=
EXTT8=
EXTT9=
EXTT10=
EXTT11=
EXTT12=
EXTT13=
EXTT14=
PLAYORDER=
